<svg width="70" height="70" viewBox="0 0 70 70" fill="none" xmlns="http://www.w3.org/2000/svg">
<path d="M4.08759 33.5999C4.3916 33.6004 4.6858 33.493 4.91723 33.2971C7.73069 31.4029 11.054 30.3969 14.4522 30.4107C17.8504 30.4246 21.1653 31.4577 23.963 33.3748C24.1842 33.5113 24.4372 33.5883 24.6974 33.5985C27.2051 32.6145 29.6031 30.3913 34.9979 30.4107C38.4181 30.4223 41.756 31.455 44.5786 33.3748C44.7963 33.5082 45.0442 33.5852 45.2996 33.5987C47.8474 32.6264 50.1136 30.4067 55.6128 30.4107C58.9854 30.4222 62.2789 31.4264 65.0777 33.2965C65.3124 33.4949 65.6111 33.6026 65.9192 33.5999C66.1035 33.5978 66.2853 33.5566 66.4523 33.479C66.6193 33.4015 66.7678 33.2895 66.8878 33.1504C67.0078 33.0113 67.0965 32.8484 67.1481 32.6725C67.1996 32.4966 67.2128 32.3118 67.1868 32.1304C67.0374 23.7406 63.5778 15.7448 57.5535 9.86582C51.5291 3.98682 43.4222 0.695136 34.9793 0.699956C26.5364 0.704777 18.4332 4.00571 12.4157 9.89159C6.39815 15.7775 2.94784 23.7772 2.80812 32.1672C2.78755 32.3468 2.80526 32.5286 2.86008 32.7009C2.9149 32.8732 3.00561 33.0321 3.1263 33.1672C3.24699 33.3024 3.39496 33.4108 3.56059 33.4853C3.72621 33.5599 3.90578 33.5989 4.08759 33.5999ZM64.5065 30.0058C61.7312 28.5724 58.6464 27.8324 55.5187 27.8497C52.3911 27.8669 49.3148 28.6409 46.5556 30.1048C46.286 19.4705 44.0899 8.78127 40.163 3.72151C46.5489 4.86626 52.3834 8.05382 56.778 12.7988C61.1726 17.5438 63.8865 23.5861 64.5065 30.0058ZM34.9978 3.25105C39.1138 3.28758 43.5775 14.1765 43.9851 30.0647C41.2157 28.6087 38.1301 27.848 34.9972 27.8488C31.8642 27.8496 28.779 28.6119 26.0104 30.0692C26.4173 14.1782 30.8814 3.28804 34.9978 3.25105ZM29.8326 3.72145C25.9058 8.78096 23.7096 19.4697 23.4399 30.1037C20.6812 28.6371 17.604 27.8622 14.4755 27.8463C11.347 27.8304 8.26195 28.574 5.48838 30.0125C6.10672 23.5915 8.82004 17.5474 13.2149 12.801C17.6099 8.05459 23.4454 4.86615 29.8326 3.72145Z" fill="#6B47F5"/>
<path d="M39.8543 52.0305C41.9147 50.5279 43.2564 48.096 43.2564 45.3564C43.2564 40.8038 39.5526 37.1 35 37.1C30.4474 37.1 26.7436 40.8038 26.7436 45.3564C26.7436 48.096 28.0852 50.5279 30.1457 52.0305C25.0239 53.9905 21.377 58.9564 21.377 64.759C21.377 67.2629 23.414 69.3 25.918 69.3H44.082C46.586 69.3 48.6231 67.2629 48.6231 64.759C48.6231 58.9564 44.9762 53.9905 39.8543 52.0305ZM29.2205 45.3564C29.2205 42.1696 31.8132 39.5769 35 39.5769C38.1868 39.5769 40.7795 42.1696 40.7795 45.3564C40.7795 48.5432 38.1868 51.1359 35 51.1359C31.8132 51.1359 29.2205 48.5432 29.2205 45.3564ZM44.082 66.823H25.918C24.7798 66.823 23.8539 65.8971 23.8539 64.7589C23.8539 58.6128 28.854 53.6127 35.0001 53.6127C41.1462 53.6127 46.1462 58.6128 46.1462 64.7589C46.1462 65.8971 45.2202 66.823 44.082 66.823Z" fill="#6B47F5"/>
</svg>
